<?xml version="1.0" encoding="UTF-8" standalone="no"?>
<svg
   xmlns:dc="http://purl.org/dc/elements/1.1/"
   xmlns:cc="http://creativecommons.org/ns#"
   xmlns:rdf="http://www.w3.org/1999/02/22-rdf-syntax-ns#"
   xmlns:svg="http://www.w3.org/2000/svg"
   xmlns="http://www.w3.org/2000/svg"
   xmlns:sodipodi="http://sodipodi.sourceforge.net/DTD/sodipodi-0.dtd"
   xmlns:inkscape="http://www.inkscape.org/namespaces/inkscape"
   viewBox="0 0 256 256"
   width="256"
   height="256"
   version="1.1"
   id="svg6"
   sodipodi:docname="d6-phoenix.svg"
   inkscape:version="1.0.1 (3bc2e813f5, 2020-09-07)"
   inkscape:label="Background"
   inkscape:export-filename="T:\scratch\mutant\d6-phoenix.png"
   inkscape:export-xdpi="101.27"
   inkscape:export-ydpi="101.27">
  <metadata
     id="metadata12">
    <rdf:RDF>
      <cc:Work
         rdf:about="">
        <dc:format>image/svg+xml</dc:format>
        <dc:type
           rdf:resource="http://purl.org/dc/dcmitype/StillImage" />
        <dc:title />
      </cc:Work>
    </rdf:RDF>
  </metadata>
  <defs
     id="defs10" />
  <sodipodi:namedview
     pagecolor="#ffffff"
     bordercolor="#666666"
     borderopacity="1"
     objecttolerance="10"
     gridtolerance="10"
     guidetolerance="10"
     inkscape:pageopacity="0"
     inkscape:pageshadow="2"
     inkscape:window-width="2382"
     inkscape:window-height="1867"
     id="namedview8"
     showgrid="false"
     inkscape:zoom="5.5684659"
     inkscape:cx="115.5545"
     inkscape:cy="118.14951"
     inkscape:window-x="614"
     inkscape:window-y="73"
     inkscape:window-maximized="0"
     inkscape:current-layer="layer1"
     inkscape:document-rotation="0" />
  <g
     fill="#aaaaaa"
     id="g4"
     transform="matrix(4.6666731,0,0,4.6666731,-22.000038,-22.000038)"
     style="fill:#800000">
    <rect
       x="6"
       y="6"
       width="52"
       height="52"
       rx="4"
       id="rect2"
       style="fill:#800000" />
  </g>
  <g
     inkscape:groupmode="layer"
     id="layer1"
     inkscape:label="Shadow">
    <path
       class="cls-1"
       d="m 105.29834,42 z m 71.81875,0 z m -70.74877,0 c -41.148299,28.534337 -20.178289,58.96617 -16.078665,65.85447 0.647065,-2.25716 -7.25638,19.33004 15.542525,34.6344 -3.8653,-5.40762 -14.687475,-17.71867 -10.182974,-27.80533 1.588084,10.86398 11.671224,15.64008 16.078654,17.56111 0.38408,3.67231 2.19032,8.14335 6.43138,11.2186 q -0.2676,-3.90172 -0.53567,-7.80513 l 5.89569,3.90257 c -0.82686,0.75253 2.79163,6.07695 2.6807,-28.29274 -4.79522,0.66388 -10.28557,0.48026 -15.54299,0 18.75521,-4.29836 23.02584,-14.597626 24.11799,-16.585883 3.07911,-5.771069 7.48747,-4.033656 13.39935,-13.658547 2.32203,0.813034 1.70132,1.99582 6.96751,2.439102 -3.61387,1.34161 -4.17912,0.571014 -3.75206,11.218605 l 5.89569,-4.877783 c -7.19491,11.044236 -14.54326,30.290656 2.6807,49.756406 -0.4058,0.27731 2.94138,-2.10969 5.89569,-3.90257 q -0.26853,3.90257 -0.53614,7.80513 c 0.71454,-0.48782 4.90476,-2.32439 6.43137,-11.2186 0.8569,-0.27186 11.33798,-4.37694 16.6148,-17.56111 0.34664,13.04888 -5.19363,20.44601 -10.7191,27.80533 1.56405,-1.03657 19.38238,-12.26189 15.54297,-34.63439 1.72583,-2.31095 26.81487,-35.97097 -15.00683,-65.36666 1.81362,0.0979 52.43311,13.244677 35.90938,62.43763 2.02994,-2.21767 6.94763,-4.965596 12.32705,-22.92713 1.04132,1.68069 28.03228,46.17696 -26.79821,66.34229 3.42018,0.38109 10.18618,2.12314 28.94184,-5.85384 -2.51384,6.65427 -24.23399,35.79281 -43.41256,40.97606 -0.25097,-0.45631 7.05717,2.4828 19.82795,-3.90256 -1.03855,0.91051 -21.00238,16.14555 -40.19665,16.09765 0,0.65042 0.70298,4.78702 6.43137,9.7564 -1.09955,-0.10504 -7.60903,-1.50295 -12.32707,-5.36602 -0.0384,1.54077 7.07705,12.26903 15.54298,20.00021 -1.20169,-0.21009 -12.93484,-3.46054 -22.50864,-11.21861 -0.54816,0.26681 -1.95044,5.04207 2.6807,10.24381 -4.28727,7.64167 -11.69339,20.99349 -12.8632,22.92713 -1.21464,-1.99582 -12.50869,-22.26242 -12.86274,-22.92713 0.39333,-0.57227 5.09564,-5.49586 2.6807,-10.24381 -1.03899,0.52522 -4.57105,5.04207 -22.50863,11.21861 2.81936,-2.56557 9.15135,-6.37738 15.54297,-20.00021 -0.80791,0.35 -4.73605,3.41306 -12.32706,5.36602 0.0342,-0.43656 5.70019,-5.72442 6.43138,-9.7564 -4.00119,-0.21009 -22.285878,-1.46389 -40.197116,-16.09765 1.164255,0.52984 16.38555,6.76141 19.294572,3.41474 -12.09042,-3.30339 -35.490162,-23.56622 -42.876879,-40.00042 2.216201,0.10631 16.89211,8.19336 28.941859,5.36602 -6.119854,-1.8143 -50.840867,-17.01699 -26.79776,-66.34229 1.821952,8.644629 6.239561,17.956491 12.327062,22.92713 C 64.4514,87.928214 58.66201,59.256067 106.36832,42 Z"
       id="path6"
       style="fill:#000000;fill-rule:evenodd;stroke-width:0.44068" />
  </g>
  <g
     inkscape:groupmode="layer"
     id="layer2"
     inkscape:label="Phoenix">
    <path
       class="cls-1"
       d="m 91.29874,28.000001 z m 71.81874,0 z m -70.748771,0 C 51.22042,56.534339 72.190429,86.966166 76.290052,93.854475 76.937118,91.597312 69.033674,113.18451 91.832569,128.48887 87.967276,123.08126 77.145103,110.7702 81.649604,100.68354 c 1.588084,10.86398 11.671216,15.64008 16.078654,17.56111 0.38408,3.67231 2.19032,8.14336 6.431372,11.21861 q -0.26761,-3.90172 -0.53568,-7.80513 l 5.8957,3.90256 c -0.82686,0.75253 2.79162,6.07696 2.6807,-28.292733 -4.79522,0.663873 -10.28557,0.480255 -15.542983,0 18.755203,-4.298364 23.025833,-14.597627 24.117983,-16.585891 3.07911,-5.771064 7.48748,-4.033655 13.39935,-13.658546 2.32204,0.813037 1.70132,1.995819 6.96751,2.4391 -3.61387,1.341619 -4.17912,0.571019 -3.75206,11.21861 l 5.89569,-4.877782 c -7.19491,11.044236 -14.54326,30.290652 2.6807,49.756412 -0.4058,0.2773 2.94138,-2.1097 5.8957,-3.90257 q -0.26854,3.90257 -0.53614,7.80513 c 0.71454,-0.48783 4.90475,-2.3244 6.43137,-11.21861 0.85689,-0.27185 11.33797,-4.37694 16.61479,-17.56111 0.34664,13.04887 -5.19362,20.44601 -10.7191,27.80534 1.56405,-1.03657 19.38239,-12.2619 15.54298,-34.634401 1.72581,-2.310955 26.81486,-35.970973 -15.00684,-65.366656 1.81363,0.0979 52.43311,13.244674 35.90937,62.437629 2.02993,-2.217664 6.94763,-4.9656 12.32706,-22.927128 1.04131,1.680691 28.03227,46.176956 -26.79822,66.342286 3.4202,0.3811 10.18619,2.12314 28.94185,-5.85383 -2.51385,6.65427 -24.23399,35.79281 -43.41255,40.97605 -0.25097,-0.4563 7.05717,2.4828 19.82794,-3.90255 -1.03854,0.91051 -21.00237,16.14554 -40.19664,16.09764 0,0.65043 0.70299,4.78703 6.43137,9.7564 -1.09955,-0.10503 -7.60903,-1.50295 -12.32707,-5.36601 -0.0384,1.54077 7.07705,12.26903 15.54298,20.0002 -1.20169,-0.21008 -12.93484,-3.46053 -22.50864,-11.2186 -0.54815,0.2668 -1.95044,5.04207 2.6807,10.2438 -4.28727,7.64168 -11.6934,20.9935 -12.8632,22.92713 -1.21463,-1.99582 -12.5087,-22.26242 -12.86274,-22.92713 0.39332,-0.57227 5.09564,-5.49585 2.6807,-10.2438 -1.039,0.52521 -4.57106,5.04207 -22.508641,11.2186 2.819359,-2.56557 9.151361,-6.37738 15.542981,-20.0002 -0.80791,0.35 -4.73606,3.41306 -12.327062,5.36601 0.0342,-0.43655 5.700182,-5.72442 6.431372,-9.7564 -4.00118,-0.21009 -22.285869,-1.46388 -40.197108,-16.09764 1.164256,0.52983 16.38555,6.76141 19.294572,3.41473 -12.090421,-3.30339 -35.490164,-23.56621 -42.876874,-40.00041 2.2162,0.1063 16.892106,8.19336 28.941854,5.36601 C 63.74345,132.52547 19.02243,117.32279 43.06554,67.997484 44.8875,76.642111 49.30511,85.953975 55.392606,90.924612 50.4518,73.928221 44.66241,45.256066 92.368709,28.000001 Z"
       id="path6-6"
       style="fill:#ffffff;fill-rule:evenodd;stroke-width:0.440681" />
  </g>
</svg>
