<?xml version="1.0" encoding="UTF-8" standalone="no"?>
<!DOCTYPE svg PUBLIC "-//W3C//DTD SVG 1.1//EN" "http://www.w3.org/Graphics/SVG/1.1/DTD/svg11.dtd">
<svg width="100%" height="100%" viewBox="0 0 1000 1000" version="1.1" xmlns="http://www.w3.org/2000/svg" xmlns:xlink="http://www.w3.org/1999/xlink" xml:space="preserve" xmlns:serif="http://www.serif.com/" style="fill-rule:evenodd;clip-rule:evenodd;stroke-linejoin:round;stroke-miterlimit:2;">
    <g>
        <path d="M632.1,14.4L416.7,171C410.6,175.4 407.1,182.5 407.1,190C407.1,197.5 410.7,204.6 416.7,209L632.1,365.4C639.2,370.6 648.6,371.3 656.5,367.3C664.4,363.3 669.4,355.2 669.4,346.4L669.4,259.6C701.5,278.6 730.4,302.6 755.2,331.8C812.6,399.9 840,486.3 832.6,575.2C825,664 783.4,744.6 715.2,802C647,859.4 560.7,886.8 471.8,879.4C382.9,872 302.5,830.3 245.1,762.1C187.5,693.8 160.1,607.6 167.7,518.7C175.2,431.7 215.5,352.3 281.5,295.1C304.3,275.3 306.6,240.8 287.1,217.9C267.3,195.1 232.8,192.8 209.9,212.5C122.2,288.3 68.6,393.9 58.6,509.5C48.6,627.4 85.1,742 161.3,832.6C237.5,923 344.4,978.3 462.3,988.5C580.2,998.5 694.8,962 785.4,885.8C875.8,809.6 931.1,702.7 941.3,584.8C942.5,571.9 942.8,559.3 942.8,546.6C942.8,442.4 906.5,342.6 838.6,261.9C792.1,206.8 734.2,164.8 669.3,137.9L669.3,33.4C669.3,24.6 664.3,16.5 656.4,12.5C648.6,8.6 639.2,9.2 632.1,14.4Z" style="fill:white;fill-rule:nonzero;"/>
        <path d="M379.1,556.9C379.1,623.7 433.2,677.8 500,677.8C566.8,677.8 620.9,623.7 620.9,556.9C620.9,490.1 566.8,436 500,436C433.3,435.9 379.1,490.1 379.1,556.9Z" style="fill:white;fill-rule:nonzero;"/>
    </g>
</svg>
