<?xml version="1.0" encoding="UTF-8" standalone="no"?>
<!DOCTYPE svg PUBLIC "-//W3C//DTD SVG 1.1//EN" "http://www.w3.org/Graphics/SVG/1.1/DTD/svg11.dtd">
<svg width="100%" height="100%" viewBox="0 0 1000 1000" version="1.1" xmlns="http://www.w3.org/2000/svg" xmlns:xlink="http://www.w3.org/1999/xlink" xml:space="preserve" xmlns:serif="http://www.serif.com/" style="fill-rule:evenodd;clip-rule:evenodd;stroke-linejoin:round;stroke-miterlimit:2;">
    <g transform="matrix(0.1,0,0,-0.1,0,512)">
        <g>
            <path d="M7545.7,4647.7C6793.5,4444.8 4984.7,3958.6 3526.2,3568.2C2054.3,3172 854.2,2840.9 829.3,2821.7C725.9,2749 703,2693.4 704.9,2536.5L708.7,2389.1L601.5,2312.5C381.4,2153.6 186.1,1851.2 128.7,1581.3C105.7,1472.3 100,1011 100,-1395L100,-4241.2L142.1,-4352.2C197.6,-4505.3 373.7,-4681.4 526.8,-4736.9L637.8,-4779L9362.2,-4779L9473.2,-4736.9C9626.3,-4679.5 9802.4,-4505.3 9857.9,-4352.2L9900,-4241.2L9896.2,-1391.2C9890.5,1453.1 9890.5,1458.8 9850.3,1510.5C9829.2,1539.2 9787.1,1581.3 9758.4,1602.4C9706.7,1642.6 9699.1,1642.6 6604,1652.2L3499.4,1661.8L6466.2,2452.3C8129.5,2896.4 9452.1,3258.1 9477,3277.3C9555.5,3332.8 9597.6,3403.6 9607.1,3491.7C9618.6,3614.2 9276,4846.8 9209,4917.7C9151.6,4980.9 9057.8,5021 8977.4,5019.1C8943,5019 8297.9,4850.6 7545.7,4647.7ZM8778.4,4299.3C8841.6,4081.1 8925.8,3753.8 8920,3748C8912.4,3738.4 8265.4,3566.2 8240.5,3566.2C8217.5,3566.2 7765.8,4060 7777.3,4071.5C7790.7,4081.1 8701.8,4328 8736.3,4329.9C8753.5,4331.9 8772.6,4316.6 8778.4,4299.3ZM7335.2,3633.2C7459.6,3495.4 7559.1,3382.5 7557.2,3380.5C7553.4,3374.8 6184.8,3011.1 6167.6,3011.1C6148.5,3011.1 5700.6,3506.8 5710.1,3516.4C5725.4,3527.9 7076.8,3889.6 7092.1,3885.8C7101.6,3882.1 7210.7,3769.1 7335.2,3633.2ZM5183.7,3170C5266,3076.2 5369.4,2965.2 5409.6,2919.3C5449.8,2875.3 5480.4,2835.1 5474.7,2829.3C5465.1,2819.7 4111.9,2456.1 4085.1,2456.1C4067.9,2456.1 3641,2932.7 3641,2951.8C3641,2961.4 4959.8,3327 5021,3334.6C5026.8,3336.6 5099.5,3261.9 5183.7,3170ZM3154.8,2567.1C3258.2,2448.4 3359.6,2333.6 3376.8,2312.5L3409.3,2270.4L2886.8,2132.6L2364.3,1992.9L2194,2165.1C2096.4,2262.7 1973.9,2364.2 1910.7,2400.5C1841.8,2438.8 1807.3,2467.5 1824.6,2473.2C1857.1,2482.8 2938.6,2777.5 2953.9,2779.5C2959.6,2781.5 3049.6,2685.8 3154.8,2567.1ZM1602.5,1902.9C1656.1,1879.9 1726.9,1834 1761.4,1799.5C1989.2,1581.3 1993,1118.1 1769.1,899.9C1612.1,746.8 1346.1,693.2 1101.1,767.8C938.4,819.5 844.6,894.1 775.7,1035.8C727.8,1133.4 722.1,1164 722.1,1345.9C722.1,1508.6 729.8,1562.2 762.3,1633C838.9,1799.5 949.9,1887.6 1143.2,1937.3C1267.6,1968 1493.4,1950.8 1602.5,1902.9ZM3430.5,733.4L3277.4,427.1L2106,427.1L2222.8,555.4C2331.9,672.1 2492.7,947.8 2492.7,1012.9C2492.7,1035.9 2586.5,1039.7 3038.2,1039.7L3583.7,1039.7L3430.5,733.4ZM5727.3,1039.7L5421.1,427.1L3966.5,427.1L4272.7,1039.7L5727.3,1039.7ZM7871.1,1039.7L7564.9,427.1L6110.3,427.1L6416.5,1039.7L7871.1,1039.7ZM9287.5,1039.7L9287.5,427.2L8253.9,427.2L8407,733.4L8560.1,1039.7L9287.5,1039.7ZM9287.5,-185.3L9287.5,-4166.5L712.5,-4166.5L712.5,-185.3L9287.5,-185.3Z" style="fill:white;fill-rule:nonzero;"/>
            <path d="M1506.8,-824.6C1378.6,-880.1 1305.8,-1027.5 1332.6,-1171.1C1349.8,-1261.1 1445.5,-1366.3 1531.7,-1391.2C1581.5,-1406.5 2391.1,-1410.3 4123.3,-1406.5C6634.6,-1400.8 6644.1,-1400.8 6695.8,-1360.6C6797.3,-1286 6827.9,-1224.7 6827.9,-1104.1C6827.9,-983.5 6797.3,-922.3 6695.8,-847.6C6644.1,-807.4 6636.5,-807.4 4104.2,-803.6C2021.7,-799.7 1554.7,-803.6 1506.8,-824.6Z" style="fill:white;fill-rule:nonzero;"/>
            <path d="M1506.8,-2049.6C1378.6,-2105.1 1305.8,-2252.5 1332.6,-2396.1C1349.8,-2486.1 1445.5,-2591.3 1531.7,-2616.2C1581.5,-2631.5 2391.1,-2635.3 4123.3,-2631.5C6634.6,-2625.8 6644.1,-2625.8 6695.8,-2585.6C6797.3,-2511 6827.9,-2449.7 6827.9,-2329.1C6827.9,-2208.5 6797.3,-2147.3 6695.8,-2072.6C6644.1,-2032.4 6636.5,-2032.4 4104.2,-2028.6C2021.7,-2024.7 1554.7,-2028.6 1506.8,-2049.6Z" style="fill:white;fill-rule:nonzero;"/>
        </g>
    </g>
</svg>
